<mxfile host="app.diagrams.net" modified="2022-10-09T08:39:58.619Z" agent="5.0 (Macintosh; Intel Mac OS X 10_15_7) AppleWebKit/537.36 (KHTML, like Gecko) Chrome/105.0.0.0 Safari/537.36" etag="wbAIpsbHJpdSLaf1aydt" version="20.3.7" type="github">
  <diagram name="Page-1" id="822b0af5-4adb-64df-f703-e8dfc1f81529">
    <mxGraphModel dx="1703" dy="961" grid="1" gridSize="10" guides="1" tooltips="1" connect="1" arrows="1" fold="1" page="1" pageScale="1" pageWidth="1100" pageHeight="850" background="none" math="0" shadow="0">
      <root>
        <mxCell id="0" />
        <mxCell id="1" parent="0" />
        <mxCell id="HFOxwUlrzNzKCSqIE_z9-2" value="" style="verticalLabelPosition=bottom;sketch=0;aspect=fixed;html=1;verticalAlign=top;strokeColor=none;align=center;outlineConnect=0;shape=mxgraph.citrix.file_server;" vertex="1" parent="1">
          <mxGeometry x="840" y="313.25" width="119.68" height="163.5" as="geometry" />
        </mxCell>
        <mxCell id="HFOxwUlrzNzKCSqIE_z9-5" value="" style="endArrow=classic;startArrow=classic;html=1;rounded=0;strokeColor=#FFFF00;" edge="1" parent="1">
          <mxGeometry width="50" height="50" relative="1" as="geometry">
            <mxPoint x="350" y="350" as="sourcePoint" />
            <mxPoint x="800" y="350" as="targetPoint" />
          </mxGeometry>
        </mxCell>
        <mxCell id="HFOxwUlrzNzKCSqIE_z9-7" value="报活流" style="edgeLabel;html=1;align=center;verticalAlign=middle;resizable=0;points=[];" vertex="1" connectable="0" parent="HFOxwUlrzNzKCSqIE_z9-5">
          <mxGeometry x="-0.0078" y="1" relative="1" as="geometry">
            <mxPoint x="-1" as="offset" />
          </mxGeometry>
        </mxCell>
        <mxCell id="HFOxwUlrzNzKCSqIE_z9-8" value="" style="endArrow=classic;startArrow=classic;html=1;rounded=0;strokeColor=#FF0000;" edge="1" parent="1">
          <mxGeometry width="50" height="50" relative="1" as="geometry">
            <mxPoint x="350" y="379.9999999999998" as="sourcePoint" />
            <mxPoint x="800" y="379.9999999999998" as="targetPoint" />
          </mxGeometry>
        </mxCell>
        <mxCell id="HFOxwUlrzNzKCSqIE_z9-9" value="控制流" style="edgeLabel;html=1;align=center;verticalAlign=middle;resizable=0;points=[];" vertex="1" connectable="0" parent="HFOxwUlrzNzKCSqIE_z9-8">
          <mxGeometry x="-0.0078" y="1" relative="1" as="geometry">
            <mxPoint x="-1" as="offset" />
          </mxGeometry>
        </mxCell>
        <mxCell id="HFOxwUlrzNzKCSqIE_z9-10" value="" style="endArrow=classic;startArrow=classic;html=1;rounded=0;strokeColor=#00CC66;" edge="1" parent="1">
          <mxGeometry width="50" height="50" relative="1" as="geometry">
            <mxPoint x="350" y="409.9999999999998" as="sourcePoint" />
            <mxPoint x="800" y="409.9999999999998" as="targetPoint" />
          </mxGeometry>
        </mxCell>
        <mxCell id="HFOxwUlrzNzKCSqIE_z9-12" value="" style="endArrow=classic;startArrow=classic;html=1;rounded=0;strokeColor=#00CC66;" edge="1" parent="1">
          <mxGeometry width="50" height="50" relative="1" as="geometry">
            <mxPoint x="350" y="424.9999999999998" as="sourcePoint" />
            <mxPoint x="800" y="424.9999999999998" as="targetPoint" />
          </mxGeometry>
        </mxCell>
        <mxCell id="HFOxwUlrzNzKCSqIE_z9-16" value="数据流" style="edgeLabel;html=1;align=center;verticalAlign=middle;resizable=0;points=[];" vertex="1" connectable="0" parent="HFOxwUlrzNzKCSqIE_z9-12">
          <mxGeometry x="0.02" y="1" relative="1" as="geometry">
            <mxPoint x="-10" y="1" as="offset" />
          </mxGeometry>
        </mxCell>
        <mxCell id="HFOxwUlrzNzKCSqIE_z9-14" value="" style="endArrow=classic;startArrow=classic;html=1;rounded=0;strokeColor=#00CC66;" edge="1" parent="1">
          <mxGeometry width="50" height="50" relative="1" as="geometry">
            <mxPoint x="350" y="439.9999999999998" as="sourcePoint" />
            <mxPoint x="800" y="439.9999999999998" as="targetPoint" />
          </mxGeometry>
        </mxCell>
        <mxCell id="HFOxwUlrzNzKCSqIE_z9-20" value="" style="rounded=1;whiteSpace=wrap;html=1;fillStyle=hatch;strokeColor=#000000;" vertex="1" parent="1">
          <mxGeometry x="380" y="310" width="380" height="160" as="geometry" />
        </mxCell>
        <mxCell id="HFOxwUlrzNzKCSqIE_z9-21" value="" style="endArrow=classic;startArrow=classic;html=1;rounded=0;strokeColor=#00CC66;" edge="1" parent="1">
          <mxGeometry width="50" height="50" relative="1" as="geometry">
            <mxPoint x="350" y="449.9999999999998" as="sourcePoint" />
            <mxPoint x="800" y="449.9999999999998" as="targetPoint" />
          </mxGeometry>
        </mxCell>
        <mxCell id="HFOxwUlrzNzKCSqIE_z9-22" value="Quic 连接" style="text;html=1;align=center;verticalAlign=middle;resizable=0;points=[];autosize=1;strokeColor=none;fillColor=none;" vertex="1" parent="1">
          <mxGeometry x="530" y="471.75" width="80" height="30" as="geometry" />
        </mxCell>
        <mxCell id="HFOxwUlrzNzKCSqIE_z9-24" value="" style="verticalLabelPosition=bottom;sketch=0;aspect=fixed;html=1;verticalAlign=top;strokeColor=none;align=center;outlineConnect=0;shape=mxgraph.citrix.laptop_2;rounded=1;fillStyle=hatch;" vertex="1" parent="1">
          <mxGeometry x="110" y="321.75" width="201.16" height="150" as="geometry" />
        </mxCell>
      </root>
    </mxGraphModel>
  </diagram>
</mxfile>
